<svg xmlns="http://www.w3.org/2000/svg" viewBox="0 0 336.67 137"><title>logotype</title><path d="M107.47,48.68c-1.58-.25-3.37.67-3.8,3.31a3.16,3.16,0,0,0,2.65,3.91c1.91,0.31,3.54-1,3.89-3.19a3.33,3.33,0,0,0-2.74-4" fill="#736658"/><path d="M336.36,119.74H55.17a39.24,39.24,0,0,1-5.07,6.82H336.36v-6.82Z" fill="#4dbbc0"/><path d="M182.3,135.4c-19.19,0-26-16-31-27.6-1.9-4.48-3.87-9.09-6-11a9.26,9.26,0,0,1-1.12.22c-0.75,5.82-1.57,12-2.48,17.74a2.31,2.31,0,0,1-2.3,2h-2.35a2.33,2.33,0,0,1-1.8-.84,2.36,2.36,0,0,1-.49-1.93c0.24-1.2.5-2.62,0.81-4.45-3.45,5.36-7.32,7.75-12.5,7.75-5.78,0-9.62-4.41-10.86-12.44-3.43,7.69-6.54,12.44-11.34,12.44-3.69,0-5.62-3.39-5.73-10.07-3.62,7-6.78,10.07-10.19,10.07-2.14,0-7.13-.89-7.13-9.16,0-4.69,2.31-12.9,4.54-20.83l0.05-.18c1.65-5.82,3.51-12.42,3.51-14.93,0-1.66-.23-3.59-0.87-3.59-2.56.59-10.38,15.3-16.58,33.36-0.42,4.16-1.08,8.62-1.71,12.82a2.32,2.32,0,0,1-2.3,2H62.24a2.34,2.34,0,0,1-2.31-2.65c0.08-.56.83-5.67,2.19-11.42l0.39-3.17c6-46.29,11-71.37,19.9-71.37,2.31,0,4.78,1.73,4.78,6.59,0,5.34-2.84,16.21-8.45,32.32,2.84-3.13,5.4-3.8,7.07-3.8A6,6,0,0,1,90.08,65a9.91,9.91,0,0,1,2.55,7.11c0,4.22-1.91,10.86-3.94,17.88-1.91,6.58-4.06,14-4.06,18.18a16.06,16.06,0,0,0,.45,4.09c1.18-.64,5.52-7.21,12.12-24.41,1.14-6.81,2.67-14.52,4-21.32l0.26-1.29a2.34,2.34,0,0,1,2.28-1.88h2.14a2.32,2.32,0,0,1,2.29,2.76L107,72.59c-2.64,14-5.37,28.44-5.37,35.73,0,1.29.06,2.92,0.14,3.57,2.41-2,7-13.33,11.15-24.24,2.38-12.24,8.2-24.54,15.94-24.54,5.11,0,8.41,4.68,8.41,11.93a29.55,29.55,0,0,1-4.64,15.68,2.3,2.3,0,0,1-1.94,1,2.38,2.38,0,0,1-1.3-.38l-1.92-1.28a2.35,2.35,0,0,1-.66-3.22,24.25,24.25,0,0,0,4.31-12.8c0-3.15-1-6.82-2.37-6.82-3.59,0-10.26,16.11-10.26,31.34,0,3.19.42,13.62,5.86,13.83,5.17-.4,8.35-8.13,14.48-24.18,6.08-40.74,10.41-60.14,18.52-60.14,2.32,0,4.79,1.73,4.79,6.59,0,5.11-2.64,15.33-7.84,30.37a8.35,8.35,0,0,1,5.19-2c2.47,0,5.1,1.48,5.1,5.64,0,6.7-6.93,19.08-14,25.07,2.52,2.86,4.51,7.07,6.8,11.94l0.72,1.52c5.17,11,11,23.55,24.44,23.55,17.83,0,21.57-13.22,21.57-24.32,0-9.58-5.47-19.28-15.92-19.28-5.59,0-11.18,4.91-13.59,11.93a2.29,2.29,0,0,1-1.2,1.35,2.19,2.19,0,0,1-1,.23,2.42,2.42,0,0,1-.82-0.15l-2-.74a2.35,2.35,0,0,1-1.39-3,21.61,21.61,0,0,1,20-14c15.45,0,22.49,12.49,22.49,24.09,0,14.15-9.74,28.47-28.36,28.47M158.86,68.18c-1.84,1.21-6.47,7-12.11,21.13,5.17-4.41,11.76-16.5,12.11-21.13M156.4,35.29c-1.7,4.15-4,13-6.09,23.66,1.94-6,5.39-17.3,6.09-23.66M81.61,35c-1.34,3.4-3.55,10.94-5.87,22.43C77.42,52.23,80.82,41.2,81.61,35" fill="#736658"/><path d="M157.34,28.22c2.26,0,4.68,1.7,4.68,6.49,0,6.05-3.76,18.58-8,30.69a8.4,8.4,0,0,1,5.41-2.18c2.42,0,5,1.45,5,5.53,0,6.84-7.25,19.36-14.06,25.05,2.55,2.86,4.59,7.18,6.87,12,5.22,11.08,11.14,25.1,25.24,25.1,17.86,0,21.67-13,21.67-24.42,0-9-5-19.38-16-19.38-6.09,0-11.47,5.52-13.69,12a2.18,2.18,0,0,1-1.15,1.28,2.09,2.09,0,0,1-.94.22,2.3,2.3,0,0,1-.79-0.14l-2-.74a2.23,2.23,0,0,1-1.33-2.84,21.5,21.5,0,0,1,19.92-14c15.38,0,22.39,12.43,22.39,24,0,14.09-9.7,28.36-28.26,28.36-19.13,0-25.93-15.93-30.9-27.55-2-4.7-3.91-9.17-6.06-11a9.25,9.25,0,0,1-1.24.24c-0.79,6.14-1.59,12.16-2.49,17.81a2.22,2.22,0,0,1-2.19,1.88h-2.35a2.21,2.21,0,0,1-1.72-.8,2.24,2.24,0,0,1-.47-1.84c0.29-1.45.58-3.13,0.89-5-3.26,5.25-7,8.14-12.69,8.14-5.85,0-9.65-4.57-10.8-12.71-3.78,8.54-6.9,12.71-11.39,12.71-3.71,0-5.6-3.5-5.63-10.38-3.49,6.8-6.68,10.38-10.29,10.38-2.11,0-7-.89-7-9.06,0-4.71,2.34-13,4.59-21C84.26,81,86,74.66,86,72.16c0-1.24-.13-3.7-1-3.7C82.44,69.06,74.54,84,68.4,101.89c-0.43,4.14-1.07,8.55-1.72,12.84a2.23,2.23,0,0,1-2.2,1.89H62.24A2.23,2.23,0,0,1,60,114.09c0-.22.79-5.51,2.18-11.41l0.4-3.18c6-46.23,11-71.28,19.8-71.28,2.26,0,4.68,1.7,4.68,6.49,0,6.44-4.25,20.26-8.63,32.79,2.51-2.91,5.09-4.17,7.34-4.16,3.83,0,6.73,3.62,6.72,8.82,0,4.22-1.92,10.87-4,17.9-2,6.87-4.05,14-4.05,18.16a13.16,13.16,0,0,0,.52,4.23c1.14-.41,5.51-6.94,12.26-24.5,1.13-6.74,2.59-14.09,4-21.34l0.26-1.29a2.22,2.22,0,0,1,2.18-1.79h2.14a2.21,2.21,0,0,1,2.18,2.63l-1.18,6.31c-2.65,14-5.39,28.54-5.39,35.85a30,30,0,0,0,.17,3.75c2.13-1.47,6-10.34,11.32-24.39,0,0,0,0,0-.07,2.32-12.1,8.07-24.4,15.8-24.4,5.05,0,8.3,4.63,8.3,11.82a29.45,29.45,0,0,1-4.62,15.62,2.24,2.24,0,0,1-1.42,1,2.22,2.22,0,0,1-.44,0,2.27,2.27,0,0,1-1.24-.37L127.51,90a2.23,2.23,0,0,1-.63-3.08,24.32,24.32,0,0,0,4.33-12.86c0-3.22-1-6.92-2.47-6.92-3.72,0-10.36,16.53-10.36,31.45,0,3.86.58,13.73,6,13.93,5.23-.4,8.37-8,14.58-24.24,6.2-41.49,10.51-60.07,18.42-60.07m-82,30.91c2.93-8.89,6-19.51,6.51-24.87-1.45,3.33-4,12-6.51,24.87m74.59,1.48c3.13-9.51,6.23-20.4,6.69-26-1.68,3.73-4.19,13-6.69,26m-3.38,29C151.95,85.29,158.8,72.51,159,68c-1.79,1-6.63,6.86-12.48,21.66M157.34,28c-8.18,0-12.53,19.42-18.62,60.23-6.11,16-9.27,23.7-14.39,24.09-5.32-.2-5.74-10.56-5.74-13.72a66.32,66.32,0,0,1,3.78-21.25c2.12-6,4.68-10,6.38-10,1.14,0,2.26,3.32,2.26,6.71a24.13,24.13,0,0,1-4.29,12.74,2.45,2.45,0,0,0,.68,3.37l1.92,1.28a2.47,2.47,0,0,0,1.83.36,2.45,2.45,0,0,0,1.55-1A29.66,29.66,0,0,0,137.35,75c0-7.31-3.34-12-8.51-12-3.63,0-7.12,2.68-10.11,7.77a54.54,54.54,0,0,0-5.89,16.78l0,0.07c-4.08,10.68-8.54,21.8-11,24.07-0.07-.73-0.12-2.18-0.12-3.36,0-7.28,2.73-21.73,5.37-35.71l0-.1,1.18-6.31a2.42,2.42,0,0,0-2.39-2.88h-2.14a2.44,2.44,0,0,0-2.39,2l-0.26,1.29c-1.41,7.13-2.88,14.49-4,21.32-6.42,16.71-10.67,23.36-12,24.27a17.24,17.24,0,0,1-.41-3.93c0-4.19,2.15-11.58,4-18.1l0-.05c2-7,3.94-13.67,3.94-17.91a10.61,10.61,0,0,0-2-6.49,6.21,6.21,0,0,0-5-2.54c-1.62,0-4.07.63-6.81,3.47,5.51-15.87,8.3-26.59,8.3-31.89,0-4.94-2.52-6.7-4.89-6.7-9,0-14,25.12-20,71.46L62,102.65c-1.35,5.73-2.1,10.84-2.18,11.41a2.44,2.44,0,0,0,2.42,2.77h2.24a2.43,2.43,0,0,0,2.41-2.07c0.64-4.2,1.29-8.65,1.72-12.83,6.07-17.67,14-32.6,16.49-33.27,0.44,0,.74,1.47.74,3.49,0,2.49-1.87,9.08-3.51,14.9l-0.05.18c-2.23,7.94-4.55,16.15-4.55,20.86,0,8.36,5.06,9.27,7.23,9.27,3.4,0,6.53-3,10.1-9.76,0.18,6.48,2.14,9.76,5.83,9.76,4.79,0,7.9-4.64,11.29-12.18,1.3,7.86,5.15,12.18,10.9,12.18,5.08,0,8.91-2.29,12.32-7.38-0.27,1.59-.51,2.86-0.72,3.95a2.45,2.45,0,0,0,.51,2,2.43,2.43,0,0,0,1.88.88h2.35a2.41,2.41,0,0,0,2.4-2.05c0.91-5.72,1.72-11.86,2.47-17.66a9.61,9.61,0,0,0,1-.2c2.09,1.9,4,6.47,5.92,10.89,5,11.69,11.84,27.68,31.1,27.68,18.69,0,28.47-14.37,28.47-28.57,0-11.65-7.07-24.19-22.6-24.19a21.71,21.71,0,0,0-20.11,14.09,2.45,2.45,0,0,0,1.45,3.11l2,0.74a2.51,2.51,0,0,0,.86.15,2.29,2.29,0,0,0,1-.24,2.38,2.38,0,0,0,1.25-1.4c2.4-7,7.95-11.86,13.49-11.86a14.13,14.13,0,0,1,12,6.23A22.92,22.92,0,0,1,204,106.5c0,6.86-1.38,12.37-4.1,16.37-3.54,5.2-9.38,7.84-17.36,7.84-13.34,0-19.19-12.48-24.35-23.49l-0.7-1.49c-2.29-4.86-4.26-9-6.76-11.91,7.07-6,14-18.37,14-25.08,0-4.23-2.69-5.74-5.21-5.74a8.31,8.31,0,0,0-5,1.79c5.13-14.87,7.73-25,7.73-30.08,0-4.94-2.53-6.7-4.89-6.7M76.24,55.53a156.64,156.64,0,0,1,5.14-19.61,152.48,152.48,0,0,1-5.14,19.61m74.55,1.59c1.88-9.22,3.85-16.89,5.41-21-0.8,5.84-3.52,15-5.41,21M147,88.94c5.38-13.41,9.81-19.12,11.73-20.54-0.52,4.66-6.71,16-11.73,20.54" fill="#fff"/><path d="M74.95,62.75a1.1,1.1,0,0,0-1,.71c-16.62,43.62-26.16,66.45-44.73,67.85C11.07,130.64,8.36,105.9,8.36,91.21,8.36,54.38,24.62,5,41.24,5,48.16,5,52.81,13,52.81,25c0,11.76-4.55,25.4-12.49,37.41a1.11,1.11,0,0,0,.31,1.54l5.19,3.44a1.06,1.06,0,0,0,.83.17,1.12,1.12,0,0,0,.71-0.47A74.51,74.51,0,0,0,59,27.56c0-16.43-6.87-27-17.52-27-22,0-40.87,50-40.87,91C0.66,120,9.88,136.4,26,136.4c25.4,0,34.86-24.57,52.05-69.17l0.26-.68a1.26,1.26,0,0,0,.08-0.4V65.58c0-1.64-1.44-2.82-3.42-2.82" fill="#736658"/><polygon points="209.1 33.07 195.8 33.07 195.8 116.55 187.45 116.55 187.45 33.07 174.15 33.07 174.15 25.25 209.1 25.25 209.1 33.07" fill="#ef659e"/><polygon points="247.6 116.55 217.21 116.55 217.21 25.25 246.29 25.25 246.29 33.34 225.56 33.34 225.56 63.72 240.03 63.72 240.03 71.81 225.56 71.81 225.56 108.46 247.6 108.46 247.6 116.55" fill="#ef659e"/><path d="M290.52,96.2q-2,10.7-5.61,15.79a14.4,14.4,0,0,1-12.26,6q-9.78,0-14-12-3.91-11.07-3.91-35.08,0-23.48,4-35,4.44-12.13,14.09-12.13a13.36,13.36,0,0,1,11.6,6q3.79,5.35,5.74,16.56L282,48.59q-2-9.64-4-13.17t-5.28-3.53q-9.39,0-9.39,39,0,20.61,2.35,29.8t7.56,9.19q3.52,0,5.61-3.79,1.95-3.39,3.65-12.26Z" fill="#ef659e"/><polygon points="336.06 116.55 327.72 116.55 327.72 71.81 308.15 71.81 308.15 116.55 299.8 116.55 299.8 25.25 308.15 25.25 308.15 63.85 327.72 63.85 327.72 25.25 336.06 25.25 336.06 116.55" fill="#ef659e"/></svg>